<svg width="523" height="24" viewBox="0 0 523 24" fill="none" xmlns="http://www.w3.org/2000/svg">
<path d="M1.448 19C1.288 19 1.152 18.944 1.04 18.832C0.928 18.72 0.872 18.584 0.872 18.424V2.8C0.872 2.624 0.92 2.48 1.016 2.368C1.128 2.256 1.272 2.2 1.448 2.2H8.408C10.28 2.2 11.672 2.616 12.584 3.448C13.512 4.264 13.976 5.384 13.976 6.808C13.976 7.64 13.768 8.352 13.352 8.944C12.952 9.52 12.48 9.936 11.936 10.192C12.608 10.496 13.168 10.992 13.616 11.68C14.08 12.368 14.312 13.152 14.312 14.032C14.312 15.52 13.808 16.72 12.8 17.632C11.808 18.544 10.408 19 8.6 19H1.448ZM7.976 9.088C8.808 9.088 9.44 8.888 9.872 8.488C10.304 8.088 10.52 7.552 10.52 6.88C10.52 6.192 10.304 5.664 9.872 5.296C9.44 4.912 8.808 4.72 7.976 4.72H4.208V9.088H7.976ZM8.216 16.456C9.048 16.456 9.696 16.232 10.16 15.784C10.624 15.32 10.856 14.736 10.856 14.032C10.856 13.312 10.624 12.728 10.16 12.28C9.696 11.816 9.048 11.584 8.216 11.584H4.208V16.456H8.216ZM22.4371 19.24C20.6771 19.24 19.2691 18.752 18.2131 17.776C17.1731 16.8 16.6211 15.448 16.5571 13.72L16.5331 12.76L16.5571 11.8C16.6211 10.072 17.1731 8.72 18.2131 7.744C19.2691 6.768 20.6771 6.28 22.4371 6.28C23.6851 6.28 24.7411 6.504 25.6051 6.952C26.4851 7.4 27.1331 7.952 27.5491 8.608C27.9811 9.248 28.2131 9.856 28.2451 10.432C28.2611 10.592 28.2051 10.728 28.0771 10.84C27.9651 10.952 27.8291 11.008 27.6691 11.008H25.5571C25.3971 11.008 25.2691 10.976 25.1731 10.912C25.0931 10.832 25.0131 10.704 24.9331 10.528C24.6931 9.904 24.3731 9.456 23.9731 9.184C23.5891 8.912 23.0931 8.776 22.4851 8.776C21.6691 8.776 21.0291 9.04 20.5651 9.568C20.1011 10.08 19.8531 10.864 19.8211 11.92L19.7971 12.808L19.8211 13.6C19.8851 15.696 20.7731 16.744 22.4851 16.744C23.1091 16.744 23.6131 16.608 23.9971 16.336C24.3811 16.064 24.6931 15.616 24.9331 14.992C25.0131 14.816 25.0931 14.696 25.1731 14.632C25.2691 14.552 25.3971 14.512 25.5571 14.512H27.6691C27.8291 14.512 27.9651 14.568 28.0771 14.68C28.2051 14.792 28.2611 14.928 28.2451 15.088C28.2131 15.648 27.9891 16.248 27.5731 16.888C27.1571 17.528 26.5171 18.08 25.6531 18.544C24.7891 19.008 23.7171 19.24 22.4371 19.24ZM36.1241 19.24C34.3481 19.24 32.9321 18.728 31.8761 17.704C30.8361 16.664 30.2841 15.208 30.2201 13.336L30.1961 12.736L30.2201 12.136C30.3001 10.312 30.8601 8.88 31.9001 7.84C32.9561 6.8 34.3641 6.28 36.1241 6.28C38.0121 6.28 39.4681 6.856 40.4921 8.008C41.5321 9.16 42.0521 10.696 42.0521 12.616V13.12C42.0521 13.28 41.9961 13.416 41.8841 13.528C41.7721 13.64 41.6281 13.696 41.4521 13.696H33.4841V13.888C33.5161 14.768 33.7561 15.512 34.2041 16.12C34.6681 16.712 35.3001 17.008 36.1001 17.008C37.0441 17.008 37.8041 16.64 38.3801 15.904C38.5241 15.728 38.6361 15.616 38.7161 15.568C38.8121 15.52 38.9481 15.496 39.1241 15.496H41.1881C41.3321 15.496 41.4521 15.544 41.5481 15.64C41.6601 15.72 41.7161 15.824 41.7161 15.952C41.7161 16.336 41.4841 16.792 41.0201 17.32C40.5721 17.832 39.9241 18.28 39.0761 18.664C38.2281 19.048 37.2441 19.24 36.1241 19.24ZM38.7881 11.68V11.608C38.7881 10.664 38.5481 9.904 38.0681 9.328C37.6041 8.752 36.9561 8.464 36.1241 8.464C35.2921 8.464 34.6441 8.752 34.1801 9.328C33.7161 9.904 33.4841 10.664 33.4841 11.608V11.68H38.7881ZM45.1756 19C45.0156 19 44.8796 18.944 44.7676 18.832C44.6556 18.72 44.5996 18.584 44.5996 18.424V7.096C44.5996 6.936 44.6556 6.8 44.7676 6.688C44.8796 6.576 45.0156 6.52 45.1756 6.52H52.7836C52.9596 6.52 53.0956 6.576 53.1916 6.688C53.3036 6.784 53.3596 6.92 53.3596 7.096V8.464C53.3596 8.64 53.3036 8.784 53.1916 8.896C53.0796 9.008 52.9436 9.064 52.7836 9.064H47.7436V18.424C47.7436 18.584 47.6876 18.72 47.5756 18.832C47.4796 18.944 47.3436 19 47.1676 19H45.1756ZM54.8071 21.64C54.6471 21.64 54.5111 21.584 54.3991 21.472C54.2871 21.376 54.2311 21.24 54.2311 21.064V17.032C54.2311 16.872 54.2871 16.736 54.3991 16.624C54.5111 16.512 54.6471 16.456 54.8071 16.456H54.9991C55.6231 16.456 56.0791 15.96 56.3671 14.968C56.6551 13.976 56.7991 12.432 56.7991 10.336V7.096C56.7991 6.92 56.8551 6.784 56.9671 6.688C57.0791 6.576 57.2151 6.52 57.3751 6.52H65.9191C66.0951 6.52 66.2311 6.576 66.3271 6.688C66.4391 6.784 66.4951 6.92 66.4951 7.096V16.432H67.5751C67.7511 16.432 67.8871 16.488 67.9831 16.6C68.0951 16.696 68.1511 16.832 68.1511 17.008V21.064C68.1511 21.24 68.0951 21.376 67.9831 21.472C67.8871 21.584 67.7511 21.64 67.5751 21.64H65.6071C65.4311 21.64 65.2871 21.584 65.1751 21.472C65.0631 21.36 65.0071 21.224 65.0071 21.064V19H57.3751V21.064C57.3751 21.24 57.3191 21.376 57.2071 21.472C57.1111 21.584 56.9751 21.64 56.7991 21.64H54.8071ZM63.3751 16.432V9.064H59.8231V10.672C59.8231 13.424 59.4471 15.352 58.6951 16.456L63.3751 16.432ZM73.9814 19.24C73.1654 19.24 72.4134 19.08 71.7254 18.76C71.0534 18.424 70.5174 17.976 70.1174 17.416C69.7334 16.856 69.5414 16.24 69.5414 15.568C69.5414 14.48 69.9814 13.6 70.8614 12.928C71.7414 12.256 72.9494 11.8 74.4854 11.56L77.7734 11.08V10.576C77.7734 9.872 77.5974 9.344 77.2454 8.992C76.8934 8.64 76.3254 8.464 75.5414 8.464C75.0134 8.464 74.5814 8.568 74.2454 8.776C73.9254 8.968 73.6694 9.16 73.4774 9.352C73.2854 9.56 73.1574 9.696 73.0934 9.76C73.0294 9.952 72.9094 10.048 72.7334 10.048H70.8854C70.7414 10.048 70.6134 10 70.5014 9.904C70.4054 9.808 70.3574 9.68 70.3574 9.52C70.3734 9.12 70.5654 8.664 70.9334 8.152C71.3174 7.64 71.9014 7.2 72.6854 6.832C73.4694 6.464 74.4294 6.28 75.5654 6.28C77.4534 6.28 78.8294 6.704 79.6934 7.552C80.5574 8.4 80.9894 9.512 80.9894 10.888V18.424C80.9894 18.584 80.9334 18.72 80.8214 18.832C80.7254 18.944 80.5894 19 80.4134 19H78.4694C78.3094 19 78.1734 18.944 78.0614 18.832C77.9494 18.72 77.8934 18.584 77.8934 18.424V17.488C77.5414 18 77.0374 18.424 76.3814 18.76C75.7414 19.08 74.9414 19.24 73.9814 19.24ZM74.7974 16.96C75.6774 16.96 76.3974 16.672 76.9574 16.096C77.5174 15.52 77.7974 14.68 77.7974 13.576V13.072L75.3974 13.456C74.4694 13.6 73.7654 13.832 73.2854 14.152C72.8214 14.472 72.5894 14.864 72.5894 15.328C72.5894 15.84 72.8054 16.24 73.2374 16.528C73.6694 16.816 74.1894 16.96 74.7974 16.96ZM101.193 12.472C101.209 12.648 101.217 12.92 101.217 13.288C101.217 13.64 101.209 13.896 101.193 14.056C101.113 15.656 100.561 16.92 99.5368 17.848C98.5288 18.776 97.0808 19.24 95.1928 19.24C93.2088 19.24 91.7288 18.728 90.7528 17.704C89.7928 16.664 89.2728 15.136 89.1928 13.12L89.1688 11.68L89.1928 10.24C89.2408 7.968 89.5928 6.264 90.2488 5.128C90.9048 3.976 91.8568 3.144 93.1048 2.632C94.3528 2.104 96.3688 1.504 99.1528 0.831999L99.2728 0.808C99.4008 0.808 99.5208 0.855999 99.6328 0.951999C99.7448 1.032 99.8088 1.144 99.8248 1.288L100.137 2.872L100.161 3.016C100.161 3.144 100.121 3.256 100.041 3.352C99.9608 3.432 99.8568 3.488 99.7288 3.52L98.9608 3.688C97.0568 4.12 95.6888 4.488 94.8568 4.792C94.0408 5.08 93.4168 5.528 92.9848 6.136C92.5528 6.744 92.3048 7.656 92.2408 8.872C92.6248 8.392 93.1288 8.008 93.7528 7.72C94.3928 7.432 95.0648 7.288 95.7688 7.288C97.4488 7.288 98.7528 7.752 99.6808 8.68C100.609 9.608 101.113 10.872 101.193 12.472ZM97.9288 13.936C97.9448 13.824 97.9528 13.616 97.9528 13.312C97.9528 12.976 97.9448 12.736 97.9288 12.592C97.8968 11.6 97.6568 10.84 97.2088 10.312C96.7608 9.768 96.1528 9.496 95.3848 9.496C94.5048 9.496 93.8088 9.768 93.2968 10.312C92.7848 10.84 92.5128 11.6 92.4808 12.592L92.4568 13.312L92.4808 13.936C92.5128 14.944 92.7608 15.712 93.2248 16.24C93.6888 16.768 94.3448 17.032 95.1928 17.032C96.0408 17.032 96.6968 16.776 97.1608 16.264C97.6408 15.736 97.8968 14.96 97.9288 13.936ZM114.937 6.52C115.065 6.52 115.177 6.568 115.273 6.664C115.385 6.76 115.441 6.872 115.441 7C115.441 7.112 115.409 7.24 115.345 7.384L110.785 18.28C110.289 19.464 109.841 20.408 109.441 21.112C109.041 21.816 108.545 22.4 107.953 22.864C107.361 23.328 106.649 23.56 105.817 23.56H104.761C104.601 23.56 104.465 23.504 104.353 23.392C104.241 23.296 104.185 23.16 104.185 22.984V21.616C104.185 21.456 104.241 21.32 104.353 21.208C104.465 21.096 104.601 21.04 104.761 21.04H105.505C105.985 21.04 106.345 20.904 106.585 20.632C106.825 20.36 107.113 19.816 107.449 19L107.713 18.352L102.985 7.384C102.921 7.24 102.889 7.128 102.889 7.048C102.905 6.904 102.961 6.784 103.057 6.688C103.153 6.576 103.273 6.52 103.417 6.52H105.337C105.625 6.52 105.833 6.672 105.961 6.976L109.153 14.872L112.441 6.976C112.553 6.672 112.777 6.52 113.113 6.52H114.937ZM117.081 21.64C116.921 21.64 116.785 21.584 116.673 21.472C116.561 21.376 116.505 21.24 116.505 21.064V17.032C116.505 16.872 116.561 16.736 116.673 16.624C116.785 16.512 116.921 16.456 117.081 16.456H117.273C117.897 16.456 118.353 15.96 118.641 14.968C118.929 13.976 119.073 12.432 119.073 10.336V7.096C119.073 6.92 119.129 6.784 119.241 6.688C119.353 6.576 119.489 6.52 119.649 6.52H128.193C128.369 6.52 128.505 6.576 128.601 6.688C128.713 6.784 128.769 6.92 128.769 7.096V16.432H129.849C130.025 16.432 130.161 16.488 130.257 16.6C130.369 16.696 130.425 16.832 130.425 17.008V21.064C130.425 21.24 130.369 21.376 130.257 21.472C130.161 21.584 130.025 21.64 129.849 21.64H127.881C127.705 21.64 127.561 21.584 127.449 21.472C127.337 21.36 127.281 21.224 127.281 21.064V19H119.649V21.064C119.649 21.24 119.593 21.376 119.481 21.472C119.385 21.584 119.249 21.64 119.073 21.64H117.081ZM125.649 16.432V9.064H122.097V10.672C122.097 13.424 121.721 15.352 120.969 16.456L125.649 16.432ZM133.207 19C133.047 19 132.911 18.944 132.799 18.832C132.687 18.72 132.631 18.584 132.631 18.424V7.096C132.631 6.936 132.687 6.8 132.799 6.688C132.911 6.576 133.047 6.52 133.207 6.52H135.223C135.383 6.52 135.519 6.576 135.631 6.688C135.743 6.8 135.799 6.936 135.799 7.096V10.48H138.271C139.871 10.48 141.087 10.864 141.919 11.632C142.751 12.384 143.167 13.44 143.167 14.8C143.167 16.192 142.735 17.24 141.871 17.944C141.007 18.648 139.743 19 138.079 19H133.207ZM138.007 16.72C138.807 16.72 139.391 16.576 139.759 16.288C140.127 15.984 140.311 15.488 140.311 14.8C140.311 14.112 140.127 13.6 139.759 13.264C139.391 12.928 138.807 12.76 138.007 12.76H135.751V16.72H138.007ZM149.173 19C149.013 19 148.877 18.944 148.765 18.832C148.653 18.72 148.597 18.584 148.597 18.424V9.064H144.685C144.525 9.064 144.389 9.008 144.277 8.896C144.165 8.784 144.109 8.64 144.109 8.464V7.096C144.109 6.92 144.165 6.784 144.277 6.688C144.389 6.576 144.525 6.52 144.685 6.52H155.581C155.757 6.52 155.901 6.576 156.013 6.688C156.125 6.8 156.181 6.936 156.181 7.096V8.464C156.181 8.624 156.125 8.768 156.013 8.896C155.901 9.008 155.757 9.064 155.581 9.064H151.693V18.424C151.693 18.584 151.637 18.72 151.525 18.832C151.429 18.944 151.293 19 151.117 19H149.173ZM163.46 19.24C161.684 19.24 160.268 18.728 159.212 17.704C158.172 16.664 157.62 15.208 157.556 13.336L157.532 12.736L157.556 12.136C157.636 10.312 158.196 8.88 159.236 7.84C160.292 6.8 161.7 6.28 163.46 6.28C165.348 6.28 166.804 6.856 167.828 8.008C168.868 9.16 169.388 10.696 169.388 12.616V13.12C169.388 13.28 169.332 13.416 169.22 13.528C169.108 13.64 168.964 13.696 168.788 13.696H160.82V13.888C160.852 14.768 161.092 15.512 161.54 16.12C162.004 16.712 162.636 17.008 163.436 17.008C164.38 17.008 165.14 16.64 165.716 15.904C165.86 15.728 165.972 15.616 166.052 15.568C166.148 15.52 166.284 15.496 166.46 15.496H168.524C168.668 15.496 168.788 15.544 168.884 15.64C168.996 15.72 169.052 15.824 169.052 15.952C169.052 16.336 168.82 16.792 168.356 17.32C167.908 17.832 167.26 18.28 166.412 18.664C165.564 19.048 164.58 19.24 163.46 19.24ZM166.124 11.68V11.608C166.124 10.664 165.884 9.904 165.404 9.328C164.94 8.752 164.292 8.464 163.46 8.464C162.628 8.464 161.98 8.752 161.516 9.328C161.052 9.904 160.82 10.664 160.82 11.608V11.68H166.124ZM177.996 19C177.836 19 177.7 18.944 177.588 18.832C177.476 18.72 177.42 18.584 177.42 18.424V7.096C177.42 6.936 177.476 6.8 177.588 6.688C177.7 6.576 177.836 6.52 177.996 6.52H183.324C184.972 6.52 186.212 6.824 187.044 7.432C187.892 8.04 188.316 8.888 188.316 9.976C188.316 10.616 188.196 11.128 187.956 11.512C187.716 11.88 187.356 12.208 186.876 12.496C187.436 12.752 187.868 13.136 188.172 13.648C188.492 14.16 188.652 14.736 188.652 15.376C188.652 16.544 188.22 17.44 187.356 18.064C186.492 18.688 185.236 19 183.588 19H177.996ZM183.276 11.608C183.916 11.608 184.42 11.48 184.788 11.224C185.156 10.952 185.34 10.56 185.34 10.048C185.34 9.552 185.164 9.2 184.812 8.992C184.46 8.784 183.948 8.68 183.276 8.68H180.492V11.608H183.276ZM183.372 16.84C184.028 16.84 184.54 16.72 184.908 16.48C185.292 16.224 185.484 15.848 185.484 15.352C185.484 14.824 185.308 14.44 184.956 14.2C184.62 13.96 184.092 13.84 183.372 13.84H180.492V16.84H183.372ZM208.393 18.256C208.473 18.336 208.513 18.44 208.513 18.568C208.513 18.696 208.465 18.8 208.369 18.88C208.273 18.96 208.153 19 208.009 19H205.585C205.329 19 205.105 18.88 204.913 18.64L201.793 13.936H200.017V18.424C200.017 18.584 199.961 18.72 199.849 18.832C199.737 18.944 199.601 19 199.441 19H197.473C197.313 19 197.177 18.944 197.065 18.832C196.953 18.72 196.896 18.584 196.896 18.424V7.096C196.896 6.936 196.953 6.8 197.065 6.688C197.177 6.576 197.313 6.52 197.473 6.52H199.441C199.601 6.52 199.737 6.576 199.849 6.688C199.961 6.8 200.017 6.936 200.017 7.096V11.392H201.793L204.673 6.904C204.769 6.776 204.865 6.68 204.961 6.616C205.057 6.552 205.185 6.52 205.345 6.52H207.481C207.641 6.52 207.769 6.56 207.865 6.64C207.961 6.72 208.009 6.824 208.009 6.952C208.009 7.048 207.969 7.152 207.889 7.264L204.457 12.544L208.393 18.256ZM221.671 6.52C221.799 6.52 221.911 6.568 222.007 6.664C222.119 6.76 222.175 6.872 222.175 7C222.175 7.112 222.143 7.24 222.079 7.384L217.519 18.28C217.023 19.464 216.575 20.408 216.175 21.112C215.775 21.816 215.279 22.4 214.687 22.864C214.095 23.328 213.383 23.56 212.551 23.56H211.495C211.335 23.56 211.199 23.504 211.087 23.392C210.975 23.296 210.919 23.16 210.919 22.984V21.616C210.919 21.456 210.975 21.32 211.087 21.208C211.199 21.096 211.335 21.04 211.495 21.04H212.239C212.719 21.04 213.079 20.904 213.319 20.632C213.559 20.36 213.847 19.816 214.183 19L214.447 18.352L209.719 7.384C209.655 7.24 209.623 7.128 209.623 7.048C209.639 6.904 209.695 6.784 209.791 6.688C209.887 6.576 210.007 6.52 210.151 6.52H212.071C212.359 6.52 212.567 6.672 212.695 6.976L215.887 14.872L219.175 6.976C219.287 6.672 219.511 6.52 219.847 6.52H221.671ZM224.895 23.56C224.735 23.56 224.599 23.504 224.487 23.392C224.375 23.296 224.319 23.16 224.319 22.984V7.096C224.319 6.92 224.375 6.784 224.487 6.688C224.599 6.576 224.735 6.52 224.895 6.52H226.791C226.967 6.52 227.103 6.576 227.199 6.688C227.311 6.784 227.367 6.92 227.367 7.096V8.056C228.263 6.872 229.543 6.28 231.207 6.28C232.823 6.28 234.063 6.792 234.927 7.816C235.791 8.824 236.255 10.192 236.319 11.92C236.335 12.112 236.343 12.392 236.343 12.76C236.343 13.144 236.335 13.432 236.319 13.624C236.255 15.304 235.791 16.664 234.927 17.704C234.063 18.728 232.823 19.24 231.207 19.24C229.591 19.24 228.359 18.672 227.511 17.536V22.984C227.511 23.16 227.455 23.296 227.343 23.392C227.247 23.504 227.111 23.56 226.935 23.56H224.895ZM230.319 16.672C232.047 16.672 232.967 15.608 233.079 13.48C233.095 13.32 233.103 13.08 233.103 12.76C233.103 12.44 233.095 12.2 233.079 12.04C232.967 9.912 232.047 8.848 230.319 8.848C229.391 8.848 228.703 9.144 228.255 9.736C227.807 10.328 227.559 11.056 227.511 11.92L227.487 12.832L227.511 13.768C227.543 14.568 227.791 15.256 228.255 15.832C228.735 16.392 229.423 16.672 230.319 16.672ZM244.437 19.24C242.677 19.24 241.269 18.752 240.213 17.776C239.173 16.8 238.621 15.448 238.557 13.72L238.533 12.76L238.557 11.8C238.621 10.072 239.173 8.72 240.213 7.744C241.269 6.768 242.677 6.28 244.437 6.28C245.685 6.28 246.741 6.504 247.605 6.952C248.485 7.4 249.133 7.952 249.549 8.608C249.981 9.248 250.213 9.856 250.245 10.432C250.261 10.592 250.205 10.728 250.077 10.84C249.965 10.952 249.829 11.008 249.669 11.008H247.557C247.397 11.008 247.269 10.976 247.173 10.912C247.093 10.832 247.013 10.704 246.933 10.528C246.693 9.904 246.373 9.456 245.973 9.184C245.589 8.912 245.093 8.776 244.485 8.776C243.669 8.776 243.029 9.04 242.565 9.568C242.101 10.08 241.853 10.864 241.821 11.92L241.797 12.808L241.821 13.6C241.885 15.696 242.773 16.744 244.485 16.744C245.109 16.744 245.613 16.608 245.997 16.336C246.381 16.064 246.693 15.616 246.933 14.992C247.013 14.816 247.093 14.696 247.173 14.632C247.269 14.552 247.397 14.512 247.557 14.512H249.669C249.829 14.512 249.965 14.568 250.077 14.68C250.205 14.792 250.261 14.928 250.245 15.088C250.213 15.648 249.989 16.248 249.573 16.888C249.157 17.528 248.517 18.08 247.653 18.544C246.789 19.008 245.717 19.24 244.437 19.24ZM258.124 19.24C256.348 19.24 254.932 18.728 253.876 17.704C252.836 16.664 252.284 15.208 252.22 13.336L252.196 12.736L252.22 12.136C252.3 10.312 252.86 8.88 253.9 7.84C254.956 6.8 256.364 6.28 258.124 6.28C260.012 6.28 261.468 6.856 262.492 8.008C263.532 9.16 264.052 10.696 264.052 12.616V13.12C264.052 13.28 263.996 13.416 263.884 13.528C263.772 13.64 263.628 13.696 263.452 13.696H255.484V13.888C255.516 14.768 255.756 15.512 256.204 16.12C256.668 16.712 257.3 17.008 258.1 17.008C259.044 17.008 259.804 16.64 260.38 15.904C260.524 15.728 260.636 15.616 260.716 15.568C260.812 15.52 260.948 15.496 261.124 15.496H263.188C263.332 15.496 263.452 15.544 263.548 15.64C263.66 15.72 263.716 15.824 263.716 15.952C263.716 16.336 263.484 16.792 263.02 17.32C262.572 17.832 261.924 18.28 261.076 18.664C260.228 19.048 259.244 19.24 258.124 19.24ZM260.788 11.68V11.608C260.788 10.664 260.548 9.904 260.068 9.328C259.604 8.752 258.956 8.464 258.124 8.464C257.292 8.464 256.644 8.752 256.18 9.328C255.716 9.904 255.484 10.664 255.484 11.608V11.68H260.788ZM272.66 19C272.5 19 272.364 18.944 272.252 18.832C272.14 18.72 272.084 18.584 272.084 18.424V7.096C272.084 6.936 272.14 6.8 272.252 6.688C272.364 6.576 272.5 6.52 272.66 6.52H282.932C283.108 6.52 283.244 6.576 283.34 6.688C283.452 6.784 283.508 6.92 283.508 7.096V18.424C283.508 18.584 283.452 18.72 283.34 18.832C283.244 18.944 283.108 19 282.932 19H280.94C280.78 19 280.644 18.944 280.532 18.832C280.42 18.72 280.364 18.584 280.364 18.424V9.064H275.228V18.424C275.228 18.584 275.172 18.72 275.06 18.832C274.964 18.944 274.828 19 274.652 19H272.66ZM292.276 19.24C290.404 19.24 288.956 18.76 287.932 17.8C286.908 16.824 286.356 15.496 286.276 13.816L286.252 12.76L286.276 11.704C286.356 10.04 286.916 8.72 287.956 7.744C288.996 6.768 290.436 6.28 292.276 6.28C294.116 6.28 295.556 6.768 296.596 7.744C297.636 8.72 298.196 10.04 298.276 11.704C298.292 11.896 298.3 12.248 298.3 12.76C298.3 13.272 298.292 13.624 298.276 13.816C298.196 15.496 297.644 16.824 296.62 17.8C295.596 18.76 294.148 19.24 292.276 19.24ZM292.276 16.864C293.124 16.864 293.78 16.6 294.244 16.072C294.708 15.528 294.964 14.736 295.012 13.696C295.028 13.536 295.036 13.224 295.036 12.76C295.036 12.296 295.028 11.984 295.012 11.824C294.964 10.784 294.708 10 294.244 9.472C293.78 8.928 293.124 8.656 292.276 8.656C291.428 8.656 290.772 8.928 290.308 9.472C289.844 10 289.588 10.784 289.54 11.824L289.516 12.76L289.54 13.696C289.588 14.736 289.844 15.528 290.308 16.072C290.772 16.6 291.428 16.864 292.276 16.864ZM306.359 19.24C304.599 19.24 303.191 18.752 302.135 17.776C301.095 16.8 300.543 15.448 300.479 13.72L300.455 12.76L300.479 11.8C300.543 10.072 301.095 8.72 302.135 7.744C303.191 6.768 304.599 6.28 306.359 6.28C307.607 6.28 308.663 6.504 309.527 6.952C310.407 7.4 311.055 7.952 311.471 8.608C311.903 9.248 312.135 9.856 312.167 10.432C312.183 10.592 312.127 10.728 311.999 10.84C311.887 10.952 311.751 11.008 311.591 11.008H309.479C309.319 11.008 309.191 10.976 309.095 10.912C309.015 10.832 308.935 10.704 308.855 10.528C308.615 9.904 308.295 9.456 307.895 9.184C307.511 8.912 307.015 8.776 306.407 8.776C305.591 8.776 304.951 9.04 304.487 9.568C304.023 10.08 303.775 10.864 303.743 11.92L303.719 12.808L303.743 13.6C303.807 15.696 304.695 16.744 306.407 16.744C307.031 16.744 307.535 16.608 307.919 16.336C308.303 16.064 308.615 15.616 308.855 14.992C308.935 14.816 309.015 14.696 309.095 14.632C309.191 14.552 309.319 14.512 309.479 14.512H311.591C311.751 14.512 311.887 14.568 311.999 14.68C312.127 14.792 312.183 14.928 312.167 15.088C312.135 15.648 311.911 16.248 311.495 16.888C311.079 17.528 310.439 18.08 309.575 18.544C308.711 19.008 307.639 19.24 306.359 19.24ZM314.286 19C314.126 19 313.982 18.944 313.854 18.832C313.742 18.704 313.686 18.56 313.686 18.4V16.912C313.686 16.752 313.734 16.624 313.83 16.528C313.926 16.416 314.062 16.352 314.238 16.336C314.942 16.304 315.446 15.824 315.75 14.896C316.07 13.952 316.23 12.432 316.23 10.336V7.096C316.23 6.92 316.286 6.784 316.398 6.688C316.51 6.576 316.646 6.52 316.806 6.52H325.326C325.486 6.52 325.622 6.576 325.734 6.688C325.846 6.8 325.902 6.936 325.902 7.096V18.424C325.902 18.584 325.846 18.72 325.734 18.832C325.622 18.944 325.486 19 325.326 19H323.334C323.174 19 323.038 18.944 322.926 18.832C322.814 18.72 322.758 18.584 322.758 18.424V9.064H319.23V10.672C319.23 12.752 319.07 14.392 318.75 15.592C318.446 16.792 317.934 17.664 317.214 18.208C316.51 18.736 315.534 19 314.286 19ZM334.507 19.24C332.731 19.24 331.315 18.728 330.259 17.704C329.219 16.664 328.667 15.208 328.603 13.336L328.579 12.736L328.603 12.136C328.683 10.312 329.243 8.88 330.283 7.84C331.339 6.8 332.747 6.28 334.507 6.28C336.395 6.28 337.851 6.856 338.875 8.008C339.915 9.16 340.435 10.696 340.435 12.616V13.12C340.435 13.28 340.379 13.416 340.267 13.528C340.155 13.64 340.011 13.696 339.835 13.696H331.867V13.888C331.899 14.768 332.139 15.512 332.587 16.12C333.051 16.712 333.683 17.008 334.483 17.008C335.427 17.008 336.187 16.64 336.763 15.904C336.907 15.728 337.019 15.616 337.099 15.568C337.195 15.52 337.331 15.496 337.507 15.496H339.571C339.715 15.496 339.835 15.544 339.931 15.64C340.043 15.72 340.099 15.824 340.099 15.952C340.099 16.336 339.867 16.792 339.403 17.32C338.955 17.832 338.307 18.28 337.459 18.664C336.611 19.048 335.627 19.24 334.507 19.24ZM337.171 11.68V11.608C337.171 10.664 336.931 9.904 336.451 9.328C335.987 8.752 335.339 8.464 334.507 8.464C333.675 8.464 333.027 8.752 332.563 9.328C332.099 9.904 331.867 10.664 331.867 11.608V11.68H337.171ZM342.502 21.64C342.342 21.64 342.206 21.584 342.094 21.472C341.982 21.376 341.926 21.24 341.926 21.064V17.032C341.926 16.872 341.982 16.736 342.094 16.624C342.206 16.512 342.342 16.456 342.502 16.456H342.694C343.318 16.456 343.774 15.96 344.062 14.968C344.35 13.976 344.494 12.432 344.494 10.336V7.096C344.494 6.92 344.55 6.784 344.662 6.688C344.774 6.576 344.91 6.52 345.07 6.52H353.614C353.79 6.52 353.926 6.576 354.022 6.688C354.134 6.784 354.19 6.92 354.19 7.096V16.432H355.27C355.446 16.432 355.582 16.488 355.678 16.6C355.79 16.696 355.846 16.832 355.846 17.008V21.064C355.846 21.24 355.79 21.376 355.678 21.472C355.582 21.584 355.446 21.64 355.27 21.64H353.302C353.126 21.64 352.982 21.584 352.87 21.472C352.758 21.36 352.702 21.224 352.702 21.064V19H345.07V21.064C345.07 21.24 345.014 21.376 344.902 21.472C344.806 21.584 344.67 21.64 344.494 21.64H342.502ZM351.07 16.432V9.064H347.518V10.672C347.518 13.424 347.142 15.352 346.39 16.456L351.07 16.432ZM358.629 19C358.469 19 358.333 18.944 358.221 18.832C358.109 18.72 358.053 18.584 358.053 18.424V7.096C358.053 6.936 358.109 6.8 358.221 6.688C358.333 6.576 358.469 6.52 358.629 6.52H360.621C360.797 6.52 360.933 6.576 361.029 6.688C361.141 6.784 361.197 6.92 361.197 7.096V11.392H366.621V7.096C366.621 6.92 366.677 6.784 366.789 6.688C366.901 6.576 367.037 6.52 367.197 6.52H369.189C369.365 6.52 369.501 6.576 369.597 6.688C369.709 6.784 369.765 6.92 369.765 7.096V18.424C369.765 18.584 369.709 18.72 369.597 18.832C369.501 18.944 369.365 19 369.189 19H367.197C367.037 19 366.901 18.944 366.789 18.832C366.677 18.72 366.621 18.584 366.621 18.424V13.912H361.197V18.424C361.197 18.584 361.141 18.72 361.029 18.832C360.933 18.944 360.797 19 360.621 19H358.629ZM384.382 6.52C384.526 6.52 384.654 6.576 384.766 6.688C384.878 6.784 384.934 6.904 384.934 7.048V18.424C384.934 18.584 384.878 18.72 384.766 18.832C384.654 18.944 384.518 19 384.358 19H382.366C382.206 19 382.07 18.944 381.958 18.832C381.846 18.72 381.79 18.584 381.79 18.424V10.72L376.03 18.616C375.886 18.872 375.67 19 375.382 19H373.558C373.414 19 373.286 18.952 373.174 18.856C373.062 18.744 373.006 18.608 373.006 18.448V7.096C373.006 6.936 373.062 6.8 373.174 6.688C373.286 6.576 373.422 6.52 373.582 6.52H375.574C375.75 6.52 375.886 6.576 375.982 6.688C376.094 6.784 376.15 6.92 376.15 7.096V14.824L381.91 6.904C382.086 6.648 382.302 6.52 382.558 6.52H384.382ZM387.431 19C387.287 19 387.159 18.952 387.047 18.856C386.951 18.744 386.903 18.616 386.903 18.472C386.903 18.328 386.959 18.192 387.071 18.064L391.151 12.592L387.359 7.456C387.263 7.328 387.215 7.192 387.215 7.048C387.215 6.904 387.263 6.784 387.359 6.688C387.471 6.576 387.599 6.52 387.743 6.52H389.831C389.991 6.52 390.111 6.56 390.191 6.64C390.287 6.704 390.383 6.8 390.479 6.928L393.191 10.528L395.903 6.928C395.919 6.912 395.983 6.84 396.095 6.712C396.191 6.584 396.343 6.52 396.551 6.52H398.543C398.687 6.52 398.807 6.576 398.903 6.688C399.015 6.784 399.071 6.896 399.071 7.024C399.071 7.184 399.023 7.328 398.927 7.456L395.087 12.64L399.191 18.064C399.303 18.192 399.359 18.328 399.359 18.472C399.359 18.616 399.303 18.744 399.191 18.856C399.095 18.952 398.975 19 398.831 19H396.647C396.391 19 396.175 18.872 395.999 18.616L393.119 14.8L390.191 18.616C390.015 18.872 389.799 19 389.543 19H387.431ZM407.566 19C407.406 19 407.27 18.944 407.158 18.832C407.046 18.72 406.99 18.584 406.99 18.424V7.096C406.99 6.936 407.046 6.8 407.158 6.688C407.27 6.576 407.406 6.52 407.566 6.52H409.558C409.734 6.52 409.87 6.576 409.966 6.688C410.078 6.784 410.134 6.92 410.134 7.096V11.392H415.558V7.096C415.558 6.92 415.614 6.784 415.726 6.688C415.838 6.576 415.974 6.52 416.134 6.52H418.126C418.302 6.52 418.438 6.576 418.534 6.688C418.646 6.784 418.702 6.92 418.702 7.096V18.424C418.702 18.584 418.646 18.72 418.534 18.832C418.438 18.944 418.302 19 418.126 19H416.134C415.974 19 415.838 18.944 415.726 18.832C415.614 18.72 415.558 18.584 415.558 18.424V13.912H410.134V18.424C410.134 18.584 410.078 18.72 409.966 18.832C409.87 18.944 409.734 19 409.558 19H407.566ZM427.463 19.24C425.591 19.24 424.143 18.76 423.119 17.8C422.095 16.824 421.543 15.496 421.463 13.816L421.439 12.76L421.463 11.704C421.543 10.04 422.103 8.72 423.143 7.744C424.183 6.768 425.623 6.28 427.463 6.28C429.303 6.28 430.743 6.768 431.783 7.744C432.823 8.72 433.383 10.04 433.463 11.704C433.479 11.896 433.487 12.248 433.487 12.76C433.487 13.272 433.479 13.624 433.463 13.816C433.383 15.496 432.831 16.824 431.807 17.8C430.783 18.76 429.335 19.24 427.463 19.24ZM427.463 16.864C428.311 16.864 428.967 16.6 429.431 16.072C429.895 15.528 430.151 14.736 430.199 13.696C430.215 13.536 430.223 13.224 430.223 12.76C430.223 12.296 430.215 11.984 430.199 11.824C430.151 10.784 429.895 10 429.431 9.472C428.967 8.928 428.311 8.656 427.463 8.656C426.615 8.656 425.959 8.928 425.495 9.472C425.031 10 424.775 10.784 424.727 11.824L424.703 12.76L424.727 13.696C424.775 14.736 425.031 15.528 425.495 16.072C425.959 16.6 426.615 16.864 427.463 16.864ZM436.723 19C436.563 19 436.427 18.944 436.315 18.832C436.203 18.72 436.146 18.584 436.146 18.424V7.096C436.146 6.936 436.203 6.8 436.315 6.688C436.427 6.576 436.563 6.52 436.723 6.52H442.051C443.699 6.52 444.939 6.824 445.771 7.432C446.619 8.04 447.043 8.888 447.043 9.976C447.043 10.616 446.923 11.128 446.682 11.512C446.443 11.88 446.083 12.208 445.603 12.496C446.163 12.752 446.595 13.136 446.898 13.648C447.219 14.16 447.379 14.736 447.379 15.376C447.379 16.544 446.947 17.44 446.083 18.064C445.219 18.688 443.963 19 442.315 19H436.723ZM442.003 11.608C442.643 11.608 443.147 11.48 443.515 11.224C443.883 10.952 444.067 10.56 444.067 10.048C444.067 9.552 443.891 9.2 443.539 8.992C443.187 8.784 442.675 8.68 442.003 8.68H439.219V11.608H442.003ZM442.099 16.84C442.755 16.84 443.267 16.72 443.635 16.48C444.019 16.224 444.211 15.848 444.211 15.352C444.211 14.824 444.035 14.44 443.683 14.2C443.347 13.96 442.819 13.84 442.099 13.84H439.219V16.84H442.099ZM455.659 19.24C453.787 19.24 452.339 18.76 451.315 17.8C450.291 16.824 449.739 15.496 449.659 13.816L449.635 12.76L449.659 11.704C449.739 10.04 450.299 8.72 451.339 7.744C452.379 6.768 453.819 6.28 455.659 6.28C457.499 6.28 458.939 6.768 459.979 7.744C461.019 8.72 461.579 10.04 461.659 11.704C461.675 11.896 461.683 12.248 461.683 12.76C461.683 13.272 461.675 13.624 461.659 13.816C461.579 15.496 461.027 16.824 460.003 17.8C458.979 18.76 457.531 19.24 455.659 19.24ZM455.659 16.864C456.507 16.864 457.163 16.6 457.627 16.072C458.091 15.528 458.347 14.736 458.395 13.696C458.411 13.536 458.419 13.224 458.419 12.76C458.419 12.296 458.411 11.984 458.395 11.824C458.347 10.784 458.091 10 457.627 9.472C457.163 8.928 456.507 8.656 455.659 8.656C454.811 8.656 454.155 8.928 453.691 9.472C453.227 10 452.971 10.784 452.923 11.824L452.899 12.76L452.923 13.696C452.971 14.736 453.227 15.528 453.691 16.072C454.155 16.6 454.811 16.864 455.659 16.864ZM469.742 19.24C467.982 19.24 466.574 18.752 465.518 17.776C464.478 16.8 463.926 15.448 463.862 13.72L463.838 12.76L463.862 11.8C463.926 10.072 464.478 8.72 465.518 7.744C466.574 6.768 467.982 6.28 469.742 6.28C470.99 6.28 472.046 6.504 472.91 6.952C473.79 7.4 474.438 7.952 474.854 8.608C475.286 9.248 475.518 9.856 475.55 10.432C475.566 10.592 475.51 10.728 475.382 10.84C475.27 10.952 475.134 11.008 474.974 11.008H472.862C472.702 11.008 472.574 10.976 472.478 10.912C472.398 10.832 472.318 10.704 472.238 10.528C471.998 9.904 471.678 9.456 471.278 9.184C470.894 8.912 470.398 8.776 469.79 8.776C468.974 8.776 468.334 9.04 467.87 9.568C467.406 10.08 467.158 10.864 467.126 11.92L467.102 12.808L467.126 13.6C467.19 15.696 468.078 16.744 469.79 16.744C470.414 16.744 470.918 16.608 471.302 16.336C471.686 16.064 471.998 15.616 472.238 14.992C472.318 14.816 472.398 14.696 472.478 14.632C472.574 14.552 472.702 14.512 472.862 14.512H474.974C475.134 14.512 475.27 14.568 475.382 14.68C475.51 14.792 475.566 14.928 475.55 15.088C475.518 15.648 475.294 16.248 474.878 16.888C474.462 17.528 473.822 18.08 472.958 18.544C472.094 19.008 471.022 19.24 469.742 19.24ZM481.869 19C481.709 19 481.573 18.944 481.461 18.832C481.349 18.72 481.293 18.584 481.293 18.424V9.064H477.381C477.221 9.064 477.085 9.008 476.973 8.896C476.861 8.784 476.805 8.64 476.805 8.464V7.096C476.805 6.92 476.861 6.784 476.973 6.688C477.085 6.576 477.221 6.52 477.381 6.52H488.277C488.453 6.52 488.597 6.576 488.709 6.688C488.821 6.8 488.877 6.936 488.877 7.096V8.464C488.877 8.624 488.821 8.768 488.709 8.896C488.597 9.008 488.453 9.064 488.277 9.064H484.389V18.424C484.389 18.584 484.333 18.72 484.221 18.832C484.125 18.944 483.989 19 483.813 19H481.869ZM496.155 19.24C494.379 19.24 492.963 18.728 491.907 17.704C490.867 16.664 490.315 15.208 490.251 13.336L490.227 12.736L490.251 12.136C490.331 10.312 490.891 8.88 491.931 7.84C492.987 6.8 494.395 6.28 496.155 6.28C498.043 6.28 499.499 6.856 500.523 8.008C501.563 9.16 502.083 10.696 502.083 12.616V13.12C502.083 13.28 502.027 13.416 501.915 13.528C501.803 13.64 501.659 13.696 501.483 13.696H493.515V13.888C493.547 14.768 493.787 15.512 494.235 16.12C494.699 16.712 495.331 17.008 496.131 17.008C497.075 17.008 497.835 16.64 498.411 15.904C498.555 15.728 498.667 15.616 498.747 15.568C498.843 15.52 498.979 15.496 499.155 15.496H501.219C501.363 15.496 501.483 15.544 501.579 15.64C501.691 15.72 501.747 15.824 501.747 15.952C501.747 16.336 501.515 16.792 501.051 17.32C500.603 17.832 499.955 18.28 499.107 18.664C498.259 19.048 497.275 19.24 496.155 19.24ZM498.819 11.68V11.608C498.819 10.664 498.579 9.904 498.099 9.328C497.635 8.752 496.987 8.464 496.155 8.464C495.323 8.464 494.675 8.752 494.211 9.328C493.747 9.904 493.515 10.664 493.515 11.608V11.68H498.819ZM516.007 6.52C516.151 6.52 516.279 6.576 516.391 6.688C516.503 6.784 516.559 6.904 516.559 7.048V18.424C516.559 18.584 516.503 18.72 516.391 18.832C516.279 18.944 516.143 19 515.983 19H513.991C513.831 19 513.695 18.944 513.583 18.832C513.471 18.72 513.415 18.584 513.415 18.424V10.72L507.655 18.616C507.511 18.872 507.295 19 507.007 19H505.183C505.039 19 504.911 18.952 504.799 18.856C504.687 18.744 504.631 18.608 504.631 18.448V7.096C504.631 6.936 504.687 6.8 504.799 6.688C504.911 6.576 505.047 6.52 505.207 6.52H507.199C507.375 6.52 507.511 6.576 507.607 6.688C507.719 6.784 507.775 6.92 507.775 7.096V14.824L513.535 6.904C513.711 6.648 513.927 6.52 514.183 6.52H516.007ZM510.727 4.888C509.367 4.888 508.375 4.592 507.751 4C507.127 3.392 506.815 2.616 506.815 1.672C506.815 1.544 506.855 1.44 506.935 1.36C507.015 1.264 507.127 1.216 507.271 1.216H508.639C508.783 1.216 508.895 1.264 508.975 1.36C509.055 1.44 509.095 1.544 509.095 1.672C509.095 2.584 509.639 3.04 510.727 3.04C511.815 3.04 512.359 2.584 512.359 1.672C512.359 1.544 512.399 1.44 512.479 1.36C512.559 1.264 512.671 1.216 512.815 1.216H514.207C514.351 1.216 514.463 1.264 514.543 1.36C514.623 1.44 514.663 1.544 514.663 1.672C514.663 2.616 514.343 3.392 513.703 4C513.079 4.592 512.087 4.888 510.727 4.888ZM520.232 14.344C520.072 14.344 519.936 14.288 519.824 14.176C519.712 14.064 519.656 13.928 519.656 13.768V2.776C519.656 2.616 519.712 2.48 519.824 2.368C519.936 2.256 520.072 2.2 520.232 2.2H522.176C522.352 2.2 522.488 2.256 522.584 2.368C522.696 2.464 522.752 2.6 522.752 2.776V13.768C522.752 13.928 522.696 14.064 522.584 14.176C522.488 14.288 522.352 14.344 522.176 14.344H520.232ZM520.088 19C519.928 19 519.792 18.944 519.68 18.832C519.568 18.72 519.512 18.584 519.512 18.424V16.192C519.512 16.016 519.568 15.872 519.68 15.76C519.792 15.648 519.928 15.592 520.088 15.592H522.32C522.496 15.592 522.64 15.648 522.752 15.76C522.864 15.872 522.92 16.016 522.92 16.192V18.424C522.92 18.584 522.864 18.72 522.752 18.832C522.64 18.944 522.496 19 522.32 19H520.088Z" fill="#295093"/>
</svg>
